<svg width="376.4103271484375px" height="120.8px" xmlns="http://www.w3.org/2000/svg" viewBox="61.794836425781256 14.600000000000001 376.4103271484375 120.8" style="background: rgba(0, 0, 0, 0);" preserveAspectRatio="xMidYMid"><defs><filter id="editing-extrude-glow"><feFlood flood-color="#333333" result="flood-1"></feFlood><feMorphology operator="erode" radius="1" in="SourceAlpha" result="erode"></feMorphology><feComposite operator="in" in="flood-1" in2="erode" result="comp1"></feComposite><feConvolveMatrix order="3,3" divisor="1" in="comp1" result="convolve" kernelMatrix="0 0 0 1 1 1 0 0 0"></feConvolveMatrix><feOffset dx="-3" dy="0" in="convolve" result="extrude"></feOffset><feComposite operator="in" in="flood-1" in2="extrude" result="comp-extrude"></feComposite><feFlood flood-color="#000000" result="flood-2"></feFlood><feComposite operator="in" in="flood-2" in2="SourceAlpha" result="comp2"></feComposite><feMorphology operator="dilate" radius="1" in="comp2" result="dilate"></feMorphology><feOffset dx="-4.5" dy="0" in="dilate" result="offset"></feOffset><feGaussianBlur in="offset" stdDeviation="5.8" result="blur"></feGaussianBlur><feComponentTransfer in="blur" result="shadow"><feFuncA type="linear" slope="0.8" intercept="-0.2"></feFuncA></feComponentTransfer><feMerge><feMergeNode in="shadow"></feMergeNode><feMergeNode in="comp-extrude"></feMergeNode><feMergeNode in="SourceGraphic"></feMergeNode></feMerge></filter></defs><g filter="url(#editing-extrude-glow)"><g transform="translate(121.12313652038574, 99.00000190734863)"><path d="M29.18 1.28L29.18 1.28L29.18 1.28Q20.99 1.28 20.22-10.37L20.22-10.37L9.22-10.37L9.22-10.37Q7.94-7.42 7.04-4.86L7.04-4.86L5.38 0L-3.58 0L16.58-42.24L30.34-42.24L33.02-11.14L33.02-11.14Q33.66-4.42 36.22-2.43L36.22-2.43L36.22-2.43Q34.37 1.28 29.18 1.28ZM14.72-23.17L11.20-15.04L20.03-15.04L19.26-31.49L19.26-33.22L14.72-23.17ZM67.01 1.28L67.01 1.28L67.01 1.28Q59.26 1.28 59.26-4.74L59.26-4.74L59.26-4.74Q59.33-6.40 59.84-9.22L59.84-9.22L60.99-15.10L60.99-15.10Q62.72-23.42 62.72-25.28L62.72-25.28L62.72-25.28Q62.72-28.99 60.54-28.99L60.54-28.99L60.54-28.99Q56.90-28.99 54.98-19.46L54.98-19.46L51.20 0L38.34 1.28L44.99-32.70L55.49-33.92L54.46-27.65L54.46-27.65Q57.47-33.92 66.69-33.92L66.69-33.92L66.69-33.92Q71.17-33.92 73.06-32.03L73.06-32.03L73.06-32.03Q74.94-30.14 74.94-25.92L74.94-25.92L74.94-25.92Q74.94-21.95 72.90-12.67L72.90-12.67L72.90-12.67Q71.94-8.51 71.94-6.94L71.94-6.94L71.94-6.94Q71.94-5.38 72.80-4.48L72.80-4.48L72.80-4.48Q73.66-3.58 74.94-3.46L74.94-3.46L74.94-3.46Q74.30-1.28 72.10 0L72.10 0L72.10 0Q69.89 1.28 67.01 1.28ZM94.02 1.28L94.02 1.28L94.02 1.28Q79.94 1.28 79.94-11.97L79.94-11.97L79.94-11.97Q79.94-21.38 85.12-27.46L85.12-27.46L85.12-27.46Q90.62-33.92 100.16-33.92L100.16-33.92L100.16-33.92Q107.07-33.92 110.59-30.72L110.59-30.72L110.59-30.72Q114.11-27.52 114.11-20.80L114.11-20.80L114.11-20.80Q114.11-10.56 108.61-4.61L108.61-4.61L108.61-4.61Q103.23 1.28 94.02 1.28ZM95.68-26.56L95.68-26.56L95.68-26.56Q94.91-24.83 94.30-22.24L94.30-22.24L94.30-22.24Q93.70-19.65 92.93-15.55L92.93-15.55L92.93-15.55Q92.16-11.46 92.16-6.40L92.16-6.40L92.16-6.40Q92.16-4.74 92.70-3.65L92.70-3.65L92.70-3.65Q93.25-2.56 94.72-2.56L94.72-2.56L94.72-2.56Q96.19-2.56 97.12-3.26L97.12-3.26L97.12-3.26Q98.05-3.97 98.75-5.63L98.75-5.63L98.75-5.63Q100.03-8.58 101.06-14.05L101.06-14.05L101.06-14.05Q102.08-19.52 102.18-21.89L102.18-21.89L102.18-21.89Q102.27-24.26 102.27-26.02L102.27-26.02L102.27-26.02Q102.27-27.78 101.76-28.93L101.76-28.93L101.76-28.93Q101.25-30.08 99.81-30.08L99.81-30.08L99.81-30.08Q98.37-30.08 97.41-29.18L97.41-29.18L97.41-29.18Q96.45-28.29 95.68-26.56ZM163.97 1.28L163.97 1.28L163.97 1.28Q156.22 1.28 156.22-4.74L156.22-4.74L156.22-4.74Q156.22-7.36 157.34-12.45L157.34-12.45L157.34-12.45Q158.46-17.54 158.85-19.58L158.85-19.58L158.85-19.58Q159.74-24.26 159.74-25.73L159.74-25.73L159.74-25.73Q159.74-28.99 157.31-28.99L157.31-28.99L157.31-28.99Q155.71-28.99 154.18-26.78L154.18-26.78L154.18-26.78Q152.64-24.58 151.94-20.16L151.94-20.16L147.97 0L135.49 1.28L138.94-16.13L138.94-16.13Q139.52-19.01 140.03-22.27L140.03-22.27L140.03-22.27Q140.54-25.54 140.54-26.05L140.54-26.05L140.54-26.05Q140.54-28.99 138.37-28.99L138.37-28.99L138.37-28.99Q136.90-28.99 135.30-26.82L135.30-26.82L135.30-26.82Q133.70-24.64 132.80-20.16L132.80-20.16L128.90 0L116.29 1.28L123.01-32.64L133.44-33.92L132.35-27.46L132.35-27.46Q134.02-30.91 137.09-32.42L137.09-32.42L137.09-32.42Q140.16-33.92 144.96-33.92L144.96-33.92L144.96-33.92Q147.71-33.92 149.50-32.58L149.50-32.58L149.50-32.58Q151.30-31.23 151.87-29.06L151.87-29.06L151.87-29.06Q152.96-31.30 155.74-32.61L155.74-32.61L155.74-32.61Q158.53-33.92 161.95-33.92L161.95-33.92L161.95-33.92Q165.38-33.92 167.07-33.18L167.07-33.18L167.07-33.18Q168.77-32.45 169.79-31.23L169.79-31.23L169.79-31.23Q171.52-28.99 171.52-24.90L171.52-24.90L171.52-24.90Q171.52-20.86 169.79-12.48L169.79-12.48L169.79-12.48Q168.90-8.38 168.90-6.88L168.90-6.88L168.90-6.88Q168.90-5.38 169.76-4.48L169.76-4.48L169.76-4.48Q170.62-3.58 171.90-3.46L171.90-3.46L171.90-3.46Q171.26-1.28 169.06 0L169.06 0L169.06 0Q166.85 1.28 163.97 1.28ZM179.62-1.92L179.62-1.92L179.62-1.92Q178.11-3.58 177.44-6.21L177.44-6.21L177.44-6.21Q176.77-8.83 176.77-13.12L176.77-13.12L176.77-13.12Q176.77-17.41 178.24-21.31L178.24-21.31L178.24-21.31Q179.71-25.22 182.40-28.03L182.40-28.03L182.40-28.03Q187.90-33.92 196.99-33.92L196.99-33.92L196.99-33.92Q200.26-33.92 202.62-32.83L202.62-32.83L213.57-33.92L208.83-8.96L208.83-8.96Q208.64-8.19 208.64-6.78L208.64-6.78L208.64-6.78Q208.64-5.38 209.50-4.48L209.50-4.48L209.50-4.48Q210.37-3.58 211.65-3.46L211.65-3.46L211.65-3.46Q211.01-1.28 208.67 0L208.67 0L208.67 0Q206.34 1.28 203.71 1.28L203.71 1.28L203.71 1.28Q201.09 1.28 199.33 0.29L199.33 0.29L199.33 0.29Q197.57-0.70 197.06-2.37L197.06-2.37L197.06-2.37Q196.03-0.77 193.86 0.26L193.86 0.26L193.86 0.26Q191.68 1.28 188.77 1.28L188.77 1.28L188.77 1.28Q185.86 1.28 183.49 0.51L183.49 0.51L183.49 0.51Q181.12-0.26 179.62-1.92ZM193.12-27.90L193.12-27.90L193.12-27.90Q192.38-26.75 191.74-24.80L191.74-24.80L191.74-24.80Q191.10-22.85 190.05-17.63L190.05-17.63L190.05-17.63Q188.99-12.42 188.99-8.70L188.99-8.70L188.99-8.70Q188.99-4.99 189.57-3.90L189.57-3.90L189.57-3.90Q190.14-2.82 191.17-2.82L191.17-2.82L191.17-2.82Q193.22-2.82 194.72-4.77L194.72-4.77L194.72-4.77Q196.22-6.72 196.80-10.18L196.80-10.18L200.19-28.93L200.19-28.93Q198.85-30.08 197.28-30.08L197.28-30.08L197.28-30.08Q195.71-30.08 194.78-29.57L194.78-29.57L194.78-29.57Q193.86-29.06 193.12-27.90ZM232.32-3.52L232.32-3.52L232.32-3.52Q230.34 1.28 224 1.28L224 1.28L224 1.28Q220.80 1.28 218.75-0.96L218.75-0.96L218.75-0.96Q217.09-2.82 217.09-4.93L217.09-4.93L217.09-4.93Q217.09-9.73 219.33-20.22L219.33-20.22L224-44.80L236.99-46.08L230.78-13.70L230.78-13.70Q229.70-8.96 229.70-7.30L229.70-7.30L229.70-7.30Q229.70-3.65 232.32-3.52ZM253.12-3.52L253.12-3.52L253.12-3.52Q251.14 1.28 244.80 1.28L244.80 1.28L244.80 1.28Q241.54 1.28 239.49-0.96L239.49-0.96L239.49-0.96Q237.76-2.94 237.76-4.93L237.76-4.93L237.76-4.93Q237.76-10.11 240.13-20.22L240.13-20.22L242.50-32.64L255.49-33.92L251.58-13.70L251.58-13.70Q250.50-8.96 250.50-7.30L250.50-7.30L250.50-7.30Q250.50-3.65 253.12-3.52ZM243.65-41.54L243.65-41.54L243.65-41.54Q243.65-44.03 245.73-45.38L245.73-45.38L245.73-45.38Q247.81-46.72 250.82-46.72L250.82-46.72L250.82-46.72Q253.82-46.72 255.65-45.38L255.65-45.38L255.65-45.38Q257.47-44.03 257.47-41.54L257.47-41.54L257.47-41.54Q257.47-39.04 255.46-37.76L255.46-37.76L255.46-37.76Q253.44-36.48 250.43-36.48L250.43-36.48L250.43-36.48Q247.42-36.48 245.54-37.76L245.54-37.76L245.54-37.76Q243.65-39.04 243.65-41.54Z" fill="#eb6c6c"></path></g></g><style>text {
  font-size: 64px;
  font-family: Arial Black;
  dominant-baseline: central;
  text-anchor: middle;
}</style></svg>